<?xml version="1.0" encoding="UTF-8" standalone="no"?>
<svg
   xmlns:dc="http://purl.org/dc/elements/1.1/"
   xmlns:cc="http://creativecommons.org/ns#"
   xmlns:rdf="http://www.w3.org/1999/02/22-rdf-syntax-ns#"
   xmlns:svg="http://www.w3.org/2000/svg"
   xmlns="http://www.w3.org/2000/svg"
   xmlns:sodipodi="http://sodipodi.sourceforge.net/DTD/sodipodi-0.dtd"
   xmlns:inkscape="http://www.inkscape.org/namespaces/inkscape"
   version="1.1"
   id="svg2440"
   inkscape:output_extension="org.inkscape.output.svg.inkscape"
   sodipodi:docname="Civil_union_map_Central_America_and_the_Caribbean_Islands.svg"
   sodipodi:version="0.32"
   inkscape:version="1.0.1 (3bc2e813f5, 2020-09-07)"
   x="0px"
   y="0px"
   width="733.487"
   height="502.43619"
   viewBox="0 0 733.487 502.43619"
   enable-background="new 0 0 670 513"
   xml:space="preserve"><metadata
     id="metadata3435"><rdf:RDF><cc:Work
         rdf:about=""><dc:format>image/svg+xml</dc:format><dc:type
           rdf:resource="http://purl.org/dc/dcmitype/StillImage" /><dc:title /></cc:Work></rdf:RDF></metadata><sodipodi:namedview
     inkscape:window-maximized="1"
     id="base"
     inkscape:guide-bbox="true"
     showguides="false"
     inkscape:current-layer="svg2440"
     inkscape:window-y="-9"
     inkscape:window-x="-9"
     inkscape:cy="280.19137"
     inkscape:cx="405.15292"
     inkscape:zoom="1.5449254"
     showgrid="true"
     pagecolor="#ffffff"
     bordercolor="#666666"
     borderopacity="1.0"
     objecttolerance="10.0"
     gridtolerance="10.0"
     guidetolerance="10.0"
     inkscape:pageshadow="2"
     inkscape:pageopacity="0.0"
     inkscape:window-height="991"
     inkscape:window-width="1920"
     inkscape:pagecheckerboard="0"
     inkscape:document-rotation="0"><sodipodi:guide
       position="3.0202105e-05,-291.31565"
       orientation="0,891.58795"
       id="guide2557"
       inkscape:locked="false" /><sodipodi:guide
       position="891.58798,-291.31565"
       orientation="-793.75183,0"
       id="guide2559"
       inkscape:locked="false" /><sodipodi:guide
       position="891.58798,502.43618"
       orientation="0,-891.58795"
       id="guide2561"
       inkscape:locked="false" /><sodipodi:guide
       position="3.0202105e-05,502.43618"
       orientation="793.75183,0"
       id="guide2563"
       inkscape:locked="false" /></sodipodi:namedview><defs
     id="defs3338"><inkscape:perspective
   id="perspective5094"
   inkscape:persp3d-origin="335 : 171 : 1"
   inkscape:vp_z="670 : 256.5 : 1"
   inkscape:vp_y="0 : 1000 : 0"
   inkscape:vp_x="0 : 256.5 : 1"
   sodipodi:type="inkscape:persp3d" />
    <pattern
   id="patternRedGreen"
   patternUnits="userSpaceOnUse"
   width="8"
   height="8"
   patternTransform="rotate(-45)">
      <rect
   x="0"
   y="0"
   width="8"
   height="8"
   fill="#2d1b4e"
   stroke="none"
   id="rect7272" />
      <rect
   x="0"
   y="2"
   width="8"
   height="4"
   fill="#2d1b4e"
   stroke="none"
   id="rect7274" />
    </pattern>
    <pattern
   id="patternRedYellow"
   patternUnits="userSpaceOnUse"
   width="8"
   height="8"
   patternTransform="rotate(-45)">
      <rect
   x="0"
   y="0"
   width="8"
   height="8"
   fill="#2d1b4e"
   stroke="none"
   id="rect15" />
      <rect
   x="0"
   y="2"
   width="8"
   height="4"
   fill="#2d1b4e"
   stroke="none"
   id="rect17" />
    </pattern>
</defs><circle
     style="fill:#2d1b4e;fill-opacity:1;stroke:#000000;stroke-width:0.85193467;stroke-miterlimit:3.9920001;stroke-opacity:1"
     stroke-miterlimit="3.992"
     r="6.3525157"
     cy="313.37354"
     cx="698.9751"
     id="mq"
     inkscape:label="#mq"><title
       id="title2026">Martinique</title></circle><circle
     style="fill:#2d1b4e;fill-opacity:1;stroke:#000000;stroke-width:0.85193467;stroke-miterlimit:3.9920001;stroke-opacity:1"
     stroke-miterlimit="3.992"
     r="6.3525157"
     cy="273.06842"
     cx="691.90393"
     id="gp"
     inkscape:label="#gp"><title
       id="title2018">Guadeloupe</title></circle><circle
     style="fill:#2d1b4e;fill-opacity:1;stroke:#000000;stroke-width:0.85193467;stroke-miterlimit:3.9920001;stroke-opacity:1"
     stroke-miterlimit="3.992"
     r="6.3525157"
     cy="231.12369"
     cx="619.625"
     id="vi"
     inkscape:label="#vi"><title
       id="title1974">US Virgin Islands</title></circle><circle
     style="fill:#2d1b4e;fill-opacity:1;stroke:#000000;stroke-width:0.85193467;stroke-miterlimit:3.9920001;stroke-opacity:1"
     stroke-miterlimit="3.992"
     r="6.3525157"
     cy="213.31119"
     cx="628.75"
     id="vg"
     inkscape:label="#vg"><title
       id="title1980">British Virgin Islands</title></circle><circle
     style="fill:#2d1b4e;fill-opacity:1;stroke:#000000;stroke-width:0.851935;stroke-miterlimit:3.992;stroke-opacity:1"
     stroke-miterlimit="3.992"
     r="6.3525157"
     cy="212.18619"
     cx="658.6875"
     id="ai"
     inkscape:label="#ai"><title
       id="title1982">Anguilla</title></circle><circle
     inkscape:label="#mf"
     id="mf"
     cx="658.5625"
     cy="225.87369"
     r="6.3525157"
     stroke-miterlimit="3.992"
     style="fill:#2d1b4e;fill-opacity:1;stroke:#000000;stroke-width:0.851935;stroke-miterlimit:3.992;stroke-opacity:1"><title
       id="title2003">Saint-Martin</title></circle><path
     sodipodi:nodetypes="cccc"
     inkscape:connector-curvature="0"
     id="sxm"
     d="m 664.91502,225.87369 c 0,3.5084 -2.84412,6.35251 -6.35252,6.35251 -3.5084,0 -6.35252,-2.84411 -6.35252,-6.35251 12.70504,0 0,0 12.70504,0 z"
     style="fill:#2d1b4e;fill-opacity:1;stroke:#000000;stroke-width:0.851935;stroke-miterlimit:3.992;stroke-opacity:1"
     inkscape:label="#sxm"><title
       id="title2001">Sint Maarten</title></path><circle
     style="fill:#2d1b4e;fill-opacity:1;stroke:#000000;stroke-width:0.85193467;stroke-miterlimit:3.9920001;stroke-opacity:1"
     stroke-miterlimit="3.992"
     r="6.3525157"
     cy="247.17064"
     cx="664.05042"
     id="kn"
     inkscape:label="#kn"><title
       id="title2000">Saint Kitts and Nevis</title></circle><circle
     style="fill:#2d1b4e;fill-opacity:1;stroke:#000000;stroke-width:0.85193467;stroke-miterlimit:3.9920001;stroke-opacity:1"
     stroke-miterlimit="3.992"
     r="6.3525157"
     cy="248.53639"
     cx="684.83289"
     id="ag"
     inkscape:label="#ag"><title
       id="title2008">Antigua and Barbuda</title></circle><circle
     style="fill:#2d1b4e;fill-opacity:1;stroke:#000000;stroke-width:0.85193467;stroke-miterlimit:3.9920001;stroke-opacity:1"
     stroke-miterlimit="3.992"
     r="6.3525157"
     cy="293.43765"
     cx="689.17908"
     id="dm"
     inkscape:label="#dm"><title
       id="title2022">Dominica</title></circle><circle
     style="fill:#2d1b4e;fill-opacity:1;stroke:#000000;stroke-width:0.85193467;stroke-miterlimit:3.9920001;stroke-opacity:1"
     stroke-miterlimit="3.992"
     r="6.3525157"
     cy="332.17599"
     cx="695.43951"
     id="lc"
     inkscape:label="#lc"><title
       id="title2028">Saint Lucia</title></circle><circle
     style="fill:#2d1b4e;fill-opacity:1;stroke:#000000;stroke-width:0.85193467;stroke-miterlimit:3.9920001;stroke-opacity:1"
     stroke-miterlimit="3.992"
     r="6.3525157"
     cy="348.43945"
     cx="689.42908"
     id="vc"
     inkscape:label="#vc"><title
       id="title2034">Saint Vincent and the Grenadines</title></circle><circle
     style="fill:#2d1b4e;fill-opacity:1;stroke:#000000;stroke-width:0.85193467;stroke-miterlimit:3.9920001;stroke-opacity:1"
     stroke-miterlimit="3.992"
     r="6.3525157"
     cy="376.31458"
     cx="677.05469"
     id="gd"
     inkscape:label="#gd"><title
       id="title2040">Grenada</title></circle><g
     id="bb"
     transform="translate(-104.29825,55.154327)"
     inkscape:label="#bb"
     style="fill:#2d1b4e;fill-opacity:1;stroke:#000000;stroke-opacity:1"><title
       id="title2036">Barbados</title><circle
       transform="scale(-1,1)"
       id="ky.-6-7-3-6"
       cx="-829.78979"
       cy="295.60745"
       r="6.3525157"
       stroke-miterlimit="3.992"
       style="fill:#2d1b4e;fill-opacity:1;stroke:#000000;stroke-width:0.851935;stroke-miterlimit:3.992;stroke-opacity:1" /><circle
       id="ky.-6-7-3-6-7"
       cx="829.78979"
       cy="295.60745"
       r="6.3525157"
       stroke-miterlimit="3.992"
       style="fill:#2d1b4e;fill-opacity:1;stroke:#000000;stroke-width:0.851935;stroke-miterlimit:3.992;stroke-opacity:1" /></g><circle
     style="fill:#2d1b4e;fill-opacity:1;stroke:#000000;stroke-width:0.85193467;stroke-miterlimit:3.9920001;stroke-opacity:1"
     stroke-miterlimit="3.992"
     r="6.3525157"
     cy="261.40973"
     cx="673.52631"
     id="ms"
     inkscape:label="#ms"><title
       id="title2012">Montserrat</title></circle><circle
     style="fill:#2d1b4e;fill-opacity:1;stroke:#000000;stroke-width:0.85193467;stroke-miterlimit:3.9920001;stroke-opacity:1"
     stroke-miterlimit="3.992"
     r="6.3525157"
     cy="131.26074"
     cx="475.07166"
     id="tc"
     inkscape:label="#tc"><title
       id="title1948">Turks and Caicos Islands</title></circle><circle
     style="fill:#2d1b4e;fill-opacity:1;stroke:#000000;stroke-width:0.85193467;stroke-miterlimit:3.9920001;stroke-opacity:1"
     stroke-miterlimit="3.992"
     r="6.3525157"
     cy="194.0963"
     cx="260.12549"
     id="ky"
     inkscape:label="#ky"><title
       id="title1950">Cayman Islands</title></circle><circle
     style="fill:#2d1b4e;fill-opacity:1;stroke:#000000;stroke-width:0.85193467;stroke-miterlimit:3.9920001;stroke-opacity:1"
     stroke-miterlimit="3.992"
     r="6.3525157"
     cy="367.53134"
     cx="492.04935"
     id="aw"
     inkscape:label="#aw"><title
       id="title1958">Aruba</title></circle><circle
     style="fill:#2d1b4e;fill-opacity:1;stroke:#000000;stroke-width:0.85193467;stroke-miterlimit:3.9920001;stroke-opacity:1"
     stroke-miterlimit="3.992"
     r="6.3525157"
     cy="376.21762"
     cx="528.60394"
     id="bq"
     inkscape:label="#bq-bonaire"><title
       id="title1964">Bonaire</title></circle><circle
     style="fill:#2d1b4e;fill-opacity:1;stroke:#000000;stroke-width:0.85193467;stroke-miterlimit:3.9920001;stroke-opacity:1"
     stroke-miterlimit="3.992"
     r="6.3525157"
     cy="375.39948"
     cx="513.61249"
     id="cw"
     inkscape:label="#cw"><title
       id="title1962">Curaçao</title></circle><circle
     style="fill:#2d1b4e;fill-opacity:1;stroke:#000000;stroke-width:0.851935;stroke-miterlimit:3.992;stroke-opacity:1"
     stroke-miterlimit="3.992"
     r="6.3525157"
     cy="237"
     cx="641"
     id="bq-saba"
     inkscape:label="#bq-saba"><title
       id="title1986">Saba</title></circle><circle
     style="fill:#2d1b4e;fill-opacity:1;stroke:#000000;stroke-width:0.85193467;stroke-miterlimit:3.9920001;stroke-opacity:1"
     stroke-miterlimit="3.992"
     r="6.3525157"
     cy="240"
     cx="653"
     id="bq-sint-eustatius"
     inkscape:label="#bq-sint-eustatius"><title
       id="title1988">Sint Eustatius</title></circle><circle
     style="fill:#2d1b4e;fill-opacity:1;stroke:#000000;stroke-width:0.85193467;stroke-miterlimit:3.9920001;stroke-opacity:1"
     stroke-miterlimit="3.992"
     r="6.3525157"
     cy="234"
     cx="670"
     id="bl"
     inkscape:label="#bl"><title
       id="title1990">Saint Barthelemy</title></circle><path
     d="m 529.51284,379.73966 c -0.47674,-1.2154 0.24132,-4.32894 -1.30662,-4.94988 -1.30662,-0.52382 -1.87754,-0.37962 -1.42728,-2.25718 2.75746,2.0806 6.20354,3.64914 2.7339,7.20706"
     stroke-miterlimit="3.992"
     id="bq-bonaire"
     inkscape:connector-curvature="0"
     style="fill:#2d1b4e;stroke:#000000;stroke-width:0.5;stroke-miterlimit:3.9920001;stroke-dasharray:none;stroke-opacity:1;fill-opacity:1"
     inkscape:label="#bq-bonaire"><title
       id="title1966">Bonaire</title></path><g
     id="g1994"
     inkscape:label="#pr"
     style="fill:#2d1b4e;fill-opacity:1;stroke:#000000;stroke-opacity:1"><title
       id="title1997">Puerto Rico</title><path
       style="fill:#2d1b4e;fill-opacity:1;stroke:#000000;stroke-width:0.5;stroke-miterlimit:3.992;stroke-dasharray:none;stroke-opacity:1"
       inkscape:connector-curvature="0"
       stroke-miterlimit="3.992"
       d="m 594.32082,228.46946 c -7.1482,-0.52382 -16.33872,2.00114 -23.1691,-0.047 -1.55382,-0.46792 -4.89396,0.7151 -3.87572,-2.91048 0.58856,-0.99174 0.98584,-2.05706 1.20656,-3.19006 -0.1442,-1.78042 -2.37782,-2.48376 -2.11886,-4.4496 0.89464,-6.78622 22.7983,-2.75746 26.315,-1.49202 2.83986,1.03 9.55252,-1.13888 9.4966,3.82276 -0.0294,2.8634 -5.40308,7.37186 -7.85448,8.26648"
       id="pr"
       inkscape:label="#pr"><title
         id="title1972">Puerto Rico</title></path><path
       style="fill:#2d1b4e;fill-opacity:1;stroke:#000000;stroke-width:0.5;stroke-miterlimit:3.992;stroke-dasharray:none;stroke-opacity:1"
       d="m 604.09404,225.29412 c 0.95054,-1.42434 2.51614,-2.266 4.23476,-1.70096 -1.16536,1.18302 -2.58088,1.74804 -4.23476,1.70096"
       id="path315"
       inkscape:connector-curvature="0" /></g><g
     id="gp-"
     inkscape:label="#gp"
     style="fill:#2d1b4e;fill-opacity:1;stroke:#000000;stroke-opacity:1"><title
       id="title2016">Guadeloupe</title><path
       d="m 691.35746,271.6941 c -1.01822,1.71862 -2.5956,12.5189 -5.25888,5.17354 -1.49792,-4.13766 0.84754,-8.20468 5.25888,-5.17354"
       id="path469"
       inkscape:connector-curvature="0"
       style="fill:#2d1b4e;fill-opacity:1;stroke:#000000;stroke-width:0.5;stroke-miterlimit:3.992;stroke-dasharray:none;stroke-opacity:1" /><path
       d="m 691.35746,271.27032 c 1.854,-1.68624 -0.047,-4.98224 2.97228,-5.51196 0.40318,2.6986 2.64268,4.62912 4.85278,5.93574 -2.0806,0.721 -6.70384,2.83986 -7.82506,-0.42378"
       id="path471"
       inkscape:connector-curvature="0"
       style="fill:#2d1b4e;fill-opacity:1;stroke:#000000;stroke-width:0.5;stroke-miterlimit:3.992;stroke-dasharray:none;stroke-opacity:1" /><path
       d="m 696.8606,281.65272 c -1.78926,-1.84518 -1.43612,-2.76334 1.05648,-2.75746 0.35608,1.20952 0.002,2.12768 -1.05648,2.75746"
       id="path473"
       inkscape:connector-curvature="0"
       style="fill:#2d1b4e;fill-opacity:1;stroke:#000000;stroke-width:0.5;stroke-miterlimit:3.992;stroke-dasharray:none;stroke-opacity:1" /></g><path
     id="mq-"
     d="m 702.56974,319.15646 c -1.71568,-2.62798 -3.82278,-0.39436 -4.66148,-2.884 -0.80634,-2.4102 -1.90108,-5.02052 -1.93346,-7.6014 -0.0412,-3.38428 3.47552,-0.42082 4.39956,0.73572 1.7922,2.2601 4.29952,6.95102 2.19538,9.74968"
     stroke-miterlimit="3.992"
     inkscape:connector-curvature="0"
     style="fill:#2d1b4e;stroke:#000000;stroke-width:0.5;stroke-miterlimit:3.9920001;stroke-dasharray:none;stroke-opacity:1;fill-opacity:1"
     inkscape:label="#mq"><title
       id="title2024">Martinique</title></path><g
     id="do"
     transform="matrix(2.942854,0,0,2.942854,-1773.7011,-1682.1006)"
     style="opacity:0.998;fill:#77317f;fill-opacity:1;stroke:#000000;stroke-width:0.169903;stroke-miterlimit:3.992;stroke-dasharray:none;stroke-opacity:1"
     inkscape:label="#do"><title
       id="title732">Dominican Republic</title><path
       d="m 760.897,648.575 c 0.323,-0.661 0.677,-1.929 0.254,-2.622 -0.364,-0.597 -0.928,-1.808 -1.406,-2.274 0.969,0.052 3.2,-1.504 2.109,-2.58 -1.054,-1.039 2.058,-1.663 0.792,-3.065 -0.414,-0.458 0.124,-1.502 0.255,-1.972 0.247,-0.893 -0.564,-1.835 -0.132,-2.679 0.997,-1.953 2.997,-0.09 4.203,-0.572 0.994,-0.397 1.991,-0.624 2.984,-0.093 0.989,0.529 1.981,0.605 2.926,1.077 0.868,0.432 1.328,0.861 2.345,0.883 1.036,0.025 1.192,-0.176 1.312,0.997 0.213,2.104 1.135,2.356 3.038,1.866 0.687,-0.176 1.586,-0.422 2.202,0.09 -0.291,0.961 -1.145,0.967 -1.975,0.828 -0.822,-0.137 -2.635,0.449 -1.068,0.893 0.657,0.187 3.314,1.206 3.907,0.931 1.718,-0.797 2.769,1.386 3.841,2.364 2.128,1.939 -1.236,2.882 -1.646,3.674 -0.702,1.359 -0.983,0.035 -1.589,-0.573 -0.58,-0.58 -1.228,-0.203 -1.943,-0.353 -0.502,-0.173 -1.019,-0.29 -1.547,-0.348 -0.622,0 -1.202,0.543 -1.805,0.167 -2.559,-1.597 -3.232,1.389 -5.188,1.745 -0.471,0.087 -2.024,0.395 -2.438,0.061 -0.576,-0.466 0.06,-1.501 -0.789,-1.901 -0.365,0.814 -1.306,0.72 -1.852,1.324 -0.458,0.507 -1.132,-0.293 -1.359,0.378 -0.745,2.203 -1.69,3.676 -3.2,5.498 -0.298,-0.671 -1.139,-0.983 -1.295,-1.729 -0.154,-0.727 -0.217,-1.584 -0.936,-2.015"
       stroke-miterlimit="3.992"
       id="path734"
       style="fill:#77317f;fill-opacity:1;stroke:#000000;stroke-width:0.169903;stroke-miterlimit:3.992;stroke-dasharray:none;stroke-opacity:1"
       inkscape:connector-curvature="0" /><path
       d="m 785.016,647.998 c -0.517,-0.061 -0.997,-0.228 -1.439,-0.504 0.483,-0.116 1.282,-0.137 1.439,0.504"
       stroke-miterlimit="3.992"
       id="path736"
       style="fill:#77317f;fill-opacity:1;stroke:#000000;stroke-width:0.169903;stroke-miterlimit:3.992;stroke-dasharray:none;stroke-opacity:1"
       inkscape:connector-curvature="0" /></g><g
     id="cu"
     transform="matrix(2.942854,0,0,2.942854,-1773.7011,-1682.1006)"
     style="fill:#2d1b4e;fill-opacity:1;stroke:#000000;stroke-width:0.169903;stroke-miterlimit:3.992;stroke-dasharray:none;stroke-opacity:1"
     inkscape:label="#cu"><title
       id="title909">Cuba</title><path
       d="m 666.865,615.311 c 1.386,-0.501 2.852,-1.8 4.391,-1.008 0.506,-1.135 -0.906,-2.096 0.096,-3.211 0.814,-0.904 2.11,-2.263 3.109,-2.929 1.183,-0.787 2.714,-1.084 4.047,-1.521 1.147,-0.375 2.184,-1.131 3.424,-1.104 2.575,0.058 4.725,-1.255 7.273,-1.444 1.181,-0.088 2.606,-0.173 3.726,0.301 0.257,0.109 0.567,0.299 0.573,0.62 0.931,-0.441 1.97,-0.587 2.88,-1.079 -1.495,0.392 0.137,1.232 0.947,0.937 0.747,-0.271 2.999,-0.296 3.26,0.131 0.411,0.666 1.513,1.658 2.388,1.395 1.022,-0.307 2.384,0.876 3.271,0.128 -0.208,0.252 -0.4,0.517 -0.576,0.792 1.651,0.432 1.329,1.208 2.469,2.331 1.496,1.474 2.175,1.109 4.145,1.288 1.88,0.172 2.61,1.017 4.114,1.926 0.57,0.345 1.381,0.261 1.769,0.906 0.357,0.595 0.824,1.663 1.616,0.822 -0.296,0.882 0.422,1.49 1.235,1.564 0.951,0.088 1.249,0.926 2.077,1.243 -0.345,-0.69 -0.583,-1.581 -1.439,-1.8 0.775,0.172 3.285,1.146 2.88,2.306 -0.517,-0.071 -1.021,-0.191 -1.513,-0.361 0.354,0.455 0.491,0.961 0.792,1.439 1.102,-1.89 1.438,0.269 2.737,0.288 -0.178,0.252 -0.37,0.491 -0.576,0.72 0.474,-0.279 0.98,-0.35 1.512,-0.216 -0.099,0.263 -0.195,0.526 -0.288,0.792 0.546,0.107 1.027,0.348 1.439,0.72 -0.102,-1.956 2.666,0.313 3.229,0.712 0.737,0.521 1.411,-0.104 2.198,-0.178 1.28,-0.118 1.737,1.655 0.334,1.843 0.263,0.145 0.528,0.287 0.792,0.432 -0.603,0.189 -1.134,0.578 -1.512,1.08 2.054,0.438 5.536,-0.306 7.17,1.106 1.383,1.194 1.756,2.446 3.682,2.715 2.279,0.317 -0.729,1.907 -1.665,2.016 -0.285,0.033 -5.174,1.337 -5.273,1.175 0.033,-0.254 0.167,-0.457 0.405,-0.603 -0.906,0 -0.855,1.153 -2.399,1.003 -1.647,-0.161 -3.189,-0.75 -4.86,-0.822 -4.189,-0.183 -8.411,1.395 -12.613,1.26 0.06,-2.222 2.816,-2.755 4.265,-3.833 0.852,-0.636 1.375,-1.236 0.54,-1.921 -0.624,-0.515 0.254,-2.153 -1.254,-1.783 -2.822,0.695 -5.67,0.175 -7.282,-2.432 -0.58,-0.935 -0.477,-2.173 -0.641,-3.221 -0.076,-0.479 -0.194,-0.997 -0.512,-1.381 -0.38,-0.457 -1.214,-0.271 -0.373,-0.694 -1.288,-0.616 -2.567,0.345 -3.816,0.468 -1.296,0.129 -2.4,-1.082 -3.589,-1.296 -1.164,-0.211 -1.879,-0.02 -2.51,-0.784 -1.003,-1.213 -2.336,-1.145 -2.54,-3.066 -0.222,1.608 -5.099,1.129 -5.183,-1.008 -0.285,0.463 -0.43,0.967 -0.433,1.512 -0.436,-0.016 -0.775,-0.197 -1.017,-0.548 -0.619,-0.624 -1.599,-0.387 -2.366,-0.387 -1.266,0 -2.359,-0.75 -3.241,-1.586 0.671,-0.737 1.961,-0.354 2.821,-0.498 1.282,-0.216 1.198,-1.513 0.083,-1.888 -2.199,-0.737 -6.336,-0.808 -8.317,0.495 -1.227,0.808 -2.624,1.704 -3.61,2.8 -0.921,1.022 -1.576,0.257 -2.666,0.709 -0.624,0.26 -1.291,-0.134 -1.888,0.224 -0.633,0.38 -0.417,0.994 -0.895,1.473 -1,1.003 -2.625,0.909 -3.671,1.871 0.306,-2.918 -3.115,0.754 -3.457,-1.151 0.093,0.067 0.189,0.138 0.286,0.21"
       stroke-miterlimit="3.992"
       id="path911"
       inkscape:connector-curvature="0"
       style="fill:#2d1b4e;fill-opacity:1;stroke:#000000;stroke-width:0.169903;stroke-miterlimit:3.992;stroke-dasharray:none;stroke-opacity:1" /><path
       d="m 681.191,619.2 c -0.77,-0.18 -1.624,-0.485 -1.8,-1.369 1.547,1.655 0.896,-1.284 0.91,-1.751 0.027,-1.011 1.57,-1.417 2.331,-1.057 0.795,0.378 1.398,1.828 1.38,2.658 -0.025,1.127 -2.036,1.292 -2.821,1.519"
       stroke-miterlimit="3.992"
       id="path913"
       inkscape:connector-curvature="0"
       style="fill:#2d1b4e;fill-opacity:1;stroke:#000000;stroke-width:0.169903;stroke-miterlimit:3.992;stroke-dasharray:none;stroke-opacity:1" /><path
       d="m 703.079,606.023 c -0.263,-0.047 -0.528,-0.096 -0.791,-0.145 0.244,-0.162 0.509,-0.282 0.791,-0.359 z"
       stroke-miterlimit="3.992"
       id="path915"
       inkscape:connector-curvature="0"
       style="fill:#2d1b4e;fill-opacity:1;stroke:#000000;stroke-width:0.169903;stroke-miterlimit:3.992;stroke-dasharray:none;stroke-opacity:1" /><path
       d="m 714.311,627.191 c -0.276,-0.227 -0.54,-0.466 -0.792,-0.721 0.655,-0.016 0.622,0.217 0.792,0.721"
       stroke-miterlimit="3.992"
       id="path917"
       inkscape:connector-curvature="0"
       style="fill:#2d1b4e;fill-opacity:1;stroke:#000000;stroke-width:0.169903;stroke-miterlimit:3.992;stroke-dasharray:none;stroke-opacity:1" /><path
       d="m 715.896,610.703 c -0.496,-0.181 -0.976,-0.397 -1.439,-0.649 0.816,-0.369 2.29,-0.95 2.592,0.361 -0.389,0.084 -0.774,0.18 -1.153,0.288"
       stroke-miterlimit="3.992"
       id="path919"
       inkscape:connector-curvature="0"
       style="fill:#2d1b4e;fill-opacity:1;stroke:#000000;stroke-width:0.169903;stroke-miterlimit:3.992;stroke-dasharray:none;stroke-opacity:1" /><path
       d="m 718.704,611.999 c -0.644,-0.381 -1.611,-0.403 -1.8,-1.296 1.137,-0.658 1.4,0.521 1.8,1.296"
       stroke-miterlimit="3.992"
       id="path921"
       inkscape:connector-curvature="0"
       style="fill:#2d1b4e;fill-opacity:1;stroke:#000000;stroke-width:0.169903;stroke-miterlimit:3.992;stroke-dasharray:none;stroke-opacity:1" /><path
       d="m 719.71,613.439 c -0.832,-0.126 -1.318,-1.008 -0.791,-1.729 0.237,0.426 1.078,1.144 0.791,1.729"
       stroke-miterlimit="3.992"
       id="path923"
       inkscape:connector-curvature="0"
       style="fill:#2d1b4e;fill-opacity:1;stroke:#000000;stroke-width:0.169903;stroke-miterlimit:3.992;stroke-dasharray:none;stroke-opacity:1" /><path
       d="m 720.647,615.096 c -0.479,-0.384 -0.959,-0.769 -1.439,-1.151 1.025,-0.935 3.052,0.089 1.439,1.151"
       stroke-miterlimit="3.992"
       id="path925"
       inkscape:connector-curvature="0"
       style="fill:#2d1b4e;fill-opacity:1;stroke:#000000;stroke-width:0.169903;stroke-miterlimit:3.992;stroke-dasharray:none;stroke-opacity:1" /></g><g
     id="pa"
     transform="matrix(2.942854,0,0,2.942854,-1773.7011,-1682.1006)"
     style="fill:#77317f;fill-opacity:1;stroke:#000000;stroke-width:0.169903;stroke-miterlimit:3.992;stroke-dasharray:none;stroke-opacity:1"
     inkscape:label="#pa"><title
       id="title1290">Panama</title><path
       d="m 668.591,733.031 c -0.691,-0.668 1.063,-1.496 1.189,-2.126 0.236,-1.18 -0.983,-2.468 0.654,-3.175 1.334,-0.578 -1.123,-1.406 -1.123,-1.899 0,-1.024 0.802,-3.436 0.572,-3.838 0.954,-0.95 1.868,1.241 2.525,-0.123 0.498,0.443 1.224,0.998 1.439,1.657 -0.002,0.48 -0.025,0.961 -0.072,1.439 0.087,0.376 0.753,-0.036 0.698,0.512 -0.235,2.354 2.08,1.506 3.551,1.792 -0.282,-0.499 -0.595,-0.978 -0.937,-1.439 1.244,-0.38 2.458,2.649 3.899,2.847 3.033,0.419 4.737,-1.943 7.297,-2.899 1.756,-0.655 3.805,-1.176 5.136,-2.521 0.726,-0.735 1.135,-1.676 2.306,-1.685 1.312,-0.011 2.583,0.57 3.898,0.443 -0.236,0.298 -0.454,0.609 -0.649,0.937 2.561,-0.287 6.049,0.312 7.928,2.277 0.895,0.934 2.899,4.84 4.528,4.347 -1.209,1.862 0.167,2.693 0.8,4.618 0.68,2.073 -1.484,4.162 -3.032,5.246 -0.167,-0.532 -0.432,-1.014 -0.792,-1.439 -0.528,0.767 -0.227,0.891 -0.279,1.488 -0.052,0.617 -0.75,1.167 -1.205,2.539 -1.951,-1.408 -3.748,-4.813 -3.844,-7.196 1.636,0.609 1.072,-1.361 1.77,-2.104 0.773,-0.828 2.814,1.219 3.485,1.6 -0.449,-0.55 -1.08,-0.866 -1.625,-1.301 -0.775,-0.621 -0.635,-1.655 -1.11,-2.443 0.202,0.606 -0.129,1.14 -0.647,1.439 0.323,-1.449 -0.904,0.06 -1.441,-1.296 0.168,0.584 0.145,1.161 -0.071,1.729 -0.833,-1.534 -0.883,-3.084 -2.241,-3.868 -0.614,-0.354 -1.195,-0.772 -1.745,-1.216 -0.978,-0.794 -0.491,-0.754 -1.621,-0.688 -1.558,0.09 -4.202,0.422 -4.648,2.4 -0.339,1.509 -2.509,4.095 -4.364,3.794 -2.926,-0.474 0.222,3.855 0.879,4.575 0.505,0.553 1.581,1.684 0.967,2.504 -0.542,0.726 -1.795,0.246 -2.468,0.846 -0.88,0.783 -2.909,2 -4.158,1.312 -0.296,-0.164 -0.189,-2.158 -0.383,-2.641 -0.38,-0.948 -0.094,-2.402 -0.666,-3.202 -0.391,0.454 -0.799,0.477 -1.225,0.071 1.236,2.389 -1.468,2.986 -2.592,0.976 -0.953,-1.704 -0.92,-2.954 -2.942,-3.676 -0.66,-0.235 -1.337,0.346 -1.788,-0.372 -0.562,-0.893 -1.31,-0.186 -1.75,-0.888 -0.712,1.014 -1.758,-0.054 -2.665,0.432 -1.008,0.539 -0.29,1.718 -1.008,2.378 0.085,-0.885 -0.098,-1.654 -0.43,-2.163"
       stroke-miterlimit="3.992"
       id="path1292"
       style="fill:#77317f;fill-opacity:1;stroke:#000000;stroke-width:0.169903;stroke-miterlimit:3.992;stroke-dasharray:none;stroke-opacity:1"
       inkscape:connector-curvature="0" /><path
       d="m 672.912,733.247 c 0.002,0.526 0.169,0.502 0.504,-0.072 -0.194,-0.128 -0.362,-0.103 -0.504,0.072"
       stroke-miterlimit="3.992"
       id="path1294"
       style="fill:#77317f;fill-opacity:1;stroke:#000000;stroke-width:0.169903;stroke-miterlimit:3.992;stroke-dasharray:none;stroke-opacity:1"
       inkscape:connector-curvature="0" /><path
       d="m 677.664,738.503 c -0.452,0.461 -1.233,0.81 -0.992,1.613 0.2,0.665 0.866,1.085 1.496,0.619 -0.471,-0.669 -0.32,-1.484 -0.504,-2.232"
       stroke-miterlimit="3.992"
       id="path1296"
       style="fill:#77317f;fill-opacity:1;stroke:#000000;stroke-width:0.169903;stroke-miterlimit:3.992;stroke-dasharray:none;stroke-opacity:1"
       inkscape:connector-curvature="0" /><path
       d="m 681.335,739.944 c 0.554,-0.165 1.035,-0.454 1.441,-0.865 -0.555,0.165 -1.033,0.452 -1.441,0.865"
       stroke-miterlimit="3.992"
       id="path1298"
       style="fill:#77317f;fill-opacity:1;stroke:#000000;stroke-width:0.169903;stroke-miterlimit:3.992;stroke-dasharray:none;stroke-opacity:1"
       inkscape:connector-curvature="0" /><path
       d="m 699.912,731.447 c -0.72,0.117 -0.802,0.959 -0.649,1.512 1.01,0.15 0.83,-0.909 0.649,-1.512"
       stroke-miterlimit="3.992"
       id="path1300"
       style="fill:#77317f;fill-opacity:1;stroke:#000000;stroke-width:0.169903;stroke-miterlimit:3.992;stroke-dasharray:none;stroke-opacity:1"
       inkscape:connector-curvature="0" /></g><g
     id="cr"
     style="fill:#2d1b4e;fill-opacity:1;stroke:#000000;stroke-width:0.201587;stroke-miterlimit:3.992;stroke-dasharray:none;stroke-opacity:1"
     transform="matrix(2.4803232,0,0,2.4803232,-1677.2169,-1569.2211)"
     inkscape:label="#cr"><title
       id="title1368">Costa Rica</title><path
       d="m 729.685,802.775 c 0.50516,-0.4133 1.87133,-2.3267 1.967,-2.96196 0.15307,-1.02943 -2.15068,-2.28464 -1.27816,-2.80127 1.03707,-0.61229 1.30495,-1.49245 2.0091,-2.6673 0.27935,-0.46305 3.68141,1.19398 4.17508,1.43507 2.39179,1.18631 2.07415,0.4133 4.2899,-0.20284 0.97202,-0.27169 1.40063,1.24374 3.01555,0.95672 0.72711,0.94906 0.97202,1.8522 2.23105,2.08946 1.58049,0.2985 3.86894,0.35589 3.79624,-1.32408 0.7003,1.18631 0.0115,1.38914 0.69265,2.42239 0.56638,0.86869 0.91462,1.8828 1.29348,2.84334 0.80363,2.02441 1.60344,2.73236 2.95049,4.07942 1.22077,1.21694 1.85219,3.16862 3.41355,3.97227 0.85721,0.44009 0.72709,1.38148 -0.33677,1.06002 -0.81128,-0.24491 -1.01412,-1.22076 -2.02822,-0.49747 0.45539,0.79597 -0.53576,2.72853 -0.57403,4.04497 -0.042,1.35469 3.22986,1.80243 1.00263,2.95815 -1.79862,0.93758 0.6123,2.95049 -0.94905,4.32434 -1.72591,1.51543 -0.10715,2.40707 -0.4707,4.27074 0.10332,-0.9414 -0.30615,-1.66849 -0.9108,-2.34202 -0.38651,-0.26406 -0.73474,-0.56255 -1.05238,-0.90696 0.10715,-0.3559 0.199,-0.71178 0.27553,-1.07535 -0.33676,-1.13274 -1.63405,-3.62784 -3.1801,-2.68261 0.29466,1.37384 2.07414,1.88662 1.53839,3.50157 -1.27434,-0.39801 -3.2643,-0.84574 -3.57427,-2.4224 -0.20283,-1.02942 1.17483,-1.82158 1.2705,-2.87013 0.23345,-2.60227 -2.6099,-3.58959 -4.28605,-4.89837 -1.02178,-0.79598 -1.27435,-1.35853 -2.69028,-1.3968 -1.39298,-0.0345 -2.21575,-0.71561 -2.15451,-2.17365 0.14159,-3.45564 -3.97611,-3.44798 -5.30784,-5.88568 0.26405,0.66205 0.32146,1.36618 0.56637,2.03205 0.38652,1.05239 1.32791,0.92228 2.05885,1.5537 1.01411,0.87635 -0.19134,2.66348 -1.13658,3.03469 -1.14423,0.44774 -2.12007,-1.97082 -3.35997,-2.24635 -2.09329,-0.45922 -3.68525,-3.06148 -3.25665,-5.22366"
       stroke-miterlimit="3.992"
       id="path1370"
       style="fill:#2d1b4e;fill-opacity:1;stroke:#000000;stroke-width:0.201587;stroke-miterlimit:3.992;stroke-dasharray:none;stroke-opacity:1"
       inkscape:connector-curvature="0" /></g><g
     id="ht"
     transform="matrix(2.942854,0,0,2.942854,-1773.7011,-1682.1006)"
     style="fill:#2d1b4e;fill-opacity:1;stroke:#000000;stroke-width:0.169903;stroke-miterlimit:3.992;stroke-dasharray:none;stroke-opacity:1"
     inkscape:label="#ht"><title
       id="title1473">Haiti</title><path
       d="m 743.904,643.392 c 1.718,0.712 2.299,0.452 3.961,0.504 -1.983,0.243 0.893,0.74 1.367,0.798 1.117,0.135 2.2,0.169 3.32,0.354 1.526,0.252 1.233,-0.364 2.458,-0.773 0.778,-0.26 2.021,0.313 2.142,-0.668 0.214,-1.739 -3.06,-2.293 -2.611,-4.545 0.444,-2.222 0.784,-3.659 -2.068,-4.238 -1.12,-0.227 -3.795,-0.112 -1.551,-1.69 2.597,-1.825 4.573,-0.619 7.155,0.135 1.704,0.498 4.755,-0.232 4.893,2.205 0.046,0.795 -0.709,1.921 -0.145,2.827 0.611,0.983 -0.992,1.652 -1.159,2.235 -0.117,0.411 0.572,0.485 0.472,1.307 -0.131,1.112 -1.293,1.895 -2.395,1.836 1.272,1.113 2.246,3.26 1.154,4.896 -1.532,-2.153 -4.225,-1.868 -6.482,-1.296 -2.165,0.55 -7.21,-2.065 -8.558,0.424 -1.027,1.896 -2.273,-1.257 -3.827,-1.521 -2.501,-0.423 0.081,-3.967 1.874,-2.79"
       stroke-miterlimit="3.992"
       id="path1475"
       style="fill:#2d1b4e;fill-opacity:1;stroke:#000000;stroke-width:0.169903;stroke-miterlimit:3.992;stroke-dasharray:none;stroke-opacity:1"
       inkscape:connector-curvature="0" /><path
       d="m 747.216,648.431 c -0.265,-0.073 -0.529,-0.145 -0.792,-0.216 0.555,-0.214 0.429,0.018 0.792,0.216"
       stroke-miterlimit="3.992"
       id="path1477"
       style="fill:#2d1b4e;fill-opacity:1;stroke:#000000;stroke-width:0.169903;stroke-miterlimit:3.992;stroke-dasharray:none;stroke-opacity:1"
       inkscape:connector-curvature="0" /><path
       d="m 753.624,642.886 c -0.195,-0.145 -4.381,-1.924 -2.906,-2.227 0.942,-0.193 3.663,0.903 2.906,2.227"
       stroke-miterlimit="3.992"
       id="path1479"
       style="fill:#2d1b4e;fill-opacity:1;stroke:#000000;stroke-width:0.169903;stroke-miterlimit:3.992;stroke-dasharray:none;stroke-opacity:1"
       inkscape:connector-curvature="0" /><path
       d="m 755.567,631.583 c -0.239,-0.072 -0.479,-0.143 -0.72,-0.216 0.554,-0.488 1.287,-0.318 1.728,0.216 z"
       stroke-miterlimit="3.992"
       id="path1481"
       style="fill:#2d1b4e;fill-opacity:1;stroke:#000000;stroke-width:0.169903;stroke-miterlimit:3.992;stroke-dasharray:none;stroke-opacity:1"
       inkscape:connector-curvature="0" /></g><g
     id="sv"
     style="fill:#77317f;fill-opacity:1;stroke:#ffffff;stroke-width:0.201587;stroke-miterlimit:3.992;stroke-dasharray:none;stroke-opacity:1"
     transform="matrix(2.4803232,0,0,2.4803232,-1677.2169,-1569.2211)"
     inkscape:label="#sv"><title
       id="title2105">El Salvador</title><path
       d="m 694.662,768.092 c -0.25256,-1.03327 0.0804,-1.49248 0.73093,-2.0933 0.9835,-0.90696 1.85603,-0.53958 2.70558,-1.08299 0.11481,-0.0766 0.87253,-1.45038 1.84072,-1.87898 0.36737,-0.16073 0.0574,-0.76154 0.1569,-1.22077 0.2143,-1.01793 1.91342,-0.6276 2.57929,-0.44009 1.11362,0.30998 7.12176,4.06412 6.50946,5.43412 1.22459,-0.0114 3.95697,-2.26549 4.35878,0 1.05621,-0.69649 2.89693,-0.24491 2.40326,1.21694 -0.10333,0.3138 -0.97202,4.51186 -1.29347,3.22603 -0.88018,1.19015 0.89166,2.15452 -1.53839,2.82039 -2.30376,0.63143 -3.9761,-1.62259 -5.97754,-1.10979 2.23105,0.61229 -1.1557,0.31763 -1.72207,0.0612 -1.38914,-0.63908 -2.55634,-1.77183 -4.03733,-2.21573 -1.38532,-0.41713 -2.99642,0.1722 -4.32051,-0.49368 -0.78834,-0.39415 -1.53075,-1.69529 -2.39561,-2.22338"
       stroke-miterlimit="3.992"
       id="path2107"
       style="fill:#77317f;fill-opacity:1;stroke:#ffffff;stroke-width:0.201587;stroke-miterlimit:3.992;stroke-dasharray:none;stroke-opacity:1"
       inkscape:connector-curvature="0" /></g><g
     id="hn"
     transform="matrix(2.942854,0,0,2.942854,-1773.7011,-1682.1006)"
     style="fill:#77317f;fill-opacity:1;stroke:#ffffff;stroke-width:0.169903;stroke-miterlimit:3.992;stroke-dasharray:none;stroke-opacity:1"
     inkscape:label="#hn"><title
       id="title2412">Honduras</title><path
       d="m 624.528,679.751 c 0.542,-1.348 2.302,-1.654 1.461,-3.342 -0.472,-0.945 0.843,-2.392 1.576,-2.725 1.693,-0.765 3.022,-2.23 4.396,-3.474 0.539,-0.488 1.265,-0.92 1.896,-1.298 0.732,-0.439 1.147,0.164 1.739,-0.535 0.817,-0.962 2.679,-1.819 3.647,-0.832 0.704,0.718 4.192,0.798 5.24,0.702 1.46,-0.132 3.687,0.222 4.944,-0.581 0.45,-0.288 3.792,-1.028 1.956,-1.595 1.641,-0.054 3.052,0.978 4.682,1.008 1.679,0.028 3.635,-1.202 5.137,0.129 1.279,1.132 2.008,0.011 3.287,0.661 1.488,0.759 2.262,2.514 3.383,3.673 -0.518,-0.265 -1.008,-1.08 -1.644,-1.08 -0.622,0 -1.164,0.109 -1.668,-0.359 0.482,0.271 0.507,0.822 0.63,1.288 0.091,0.342 1.038,1.063 1.315,1.375 0.197,-0.576 -0.066,-0.959 -0.647,-1.079 0.699,-0.754 1.802,1.411 3.169,0.72 0.088,0.474 0.243,0.655 -0.072,1.08 1.452,-0.365 0.126,-1.34 -0.576,-1.584 2.336,0.329 1.896,2.304 3.744,3.024 -1.315,0.225 -2.537,-0.008 -3.701,0.806 -1.016,0.712 -3.098,1.391 -4.334,1.358 -0.98,-0.025 -1.879,1.025 -2.721,0.772 -0.595,-0.18 -1.154,-0.398 -1.699,-0.704 -0.252,-0.142 -0.274,-0.649 -0.524,-0.699 -1.37,-0.279 -1.51,1.461 -1.995,2.211 -0.313,0.483 -0.865,0.713 -1.151,1.224 -0.158,0.279 0.208,0.769 -0.061,0.964 -0.998,0.723 -4.139,2.493 -4.619,4.148 -2.18,-1.391 -2.614,-2.608 -4.021,-0.239 -0.976,1.644 -3.948,0.132 -3.792,1.572 0.154,1.428 0.781,3.092 -0.902,3.373 -0.885,0.148 -0.743,1.106 -0.978,1.743 -0.408,1.104 -1.953,0.706 -2.835,0.824 0.652,-1.06 -2.595,-2.526 -0.288,-3.386 -0.712,0.236 -1.668,0.225 -1.8,-0.72 -0.211,0.8 -0.865,1.027 -1.512,0.504 0.855,-0.279 0.701,-1.172 0.745,-1.874 0.074,-1.137 1.112,-2.411 -0.895,-2.427 -0.658,0.52 -1.013,0.424 -1.066,-0.29 -0.205,-0.255 -0.469,-0.354 -0.792,-0.299 -0.934,0.105 -1.724,0.849 -2.673,0.858 0.708,-1.602 -5.253,-4.155 -5.981,-4.895"
       stroke-miterlimit="3.992"
       id="path2414"
       style="fill:#77317f;fill-opacity:1;stroke:#ffffff;stroke-width:0.169903;stroke-miterlimit:3.992;stroke-dasharray:none;stroke-opacity:1"
       inkscape:connector-curvature="0" /><path
       d="m 646.993,663.839 c 0.871,-0.576 1.833,-0.997 2.808,-1.367 -1.01,0.009 -2.306,0.407 -2.808,1.367"
       stroke-miterlimit="3.992"
       id="path2416"
       style="fill:#77317f;fill-opacity:1;stroke:#ffffff;stroke-width:0.169903;stroke-miterlimit:3.992;stroke-dasharray:none;stroke-opacity:1"
       inkscape:connector-curvature="0" /></g><g
     id="ni"
     style="fill:#77317f;fill-opacity:1;stroke:#ffffff;stroke-width:0.201587;stroke-miterlimit:3.992;stroke-dasharray:none;stroke-opacity:1"
     transform="matrix(2.4803232,0,0,2.4803232,-1677.2169,-1569.2211)"
     inkscape:label="#ni"><title
       id="title2424">Nicaragua</title><path
       d="m 716.528,775.095 c 1.07535,0.45158 1.10979,1.58815 2.47596,1.45421 0.19135,-0.31762 -0.40181,-0.64673 0.14926,-0.73092 0.56254,-0.0728 2.10093,-0.15691 2.61757,-0.31381 1.12509,-0.33676 0.41329,-1.88281 1.2131,-2.44535 0.59316,-0.41713 1.52691,-0.0918 1.67233,-0.94141 0.18369,-1.07534 -0.7692,-3.26047 -0.0956,-4.11385 0.61996,-0.79217 2.04737,-0.15691 2.82421,-0.0536 0.98351,0.12629 1.37767,-0.7424 1.93639,-1.40063 2.08564,-2.47214 2.36499,-0.71561 4.55012,0.68118 0.36354,-2.07416 3.16096,-3.46712 4.89071,-4.9175 1.17866,-0.088 -0.065,-0.91844 1.28199,-2.05501 1.02177,-0.85339 0.99498,-2.24254 2.08944,-3.06913 1.23992,-0.93376 1.71444,0.62759 2.72473,1.1825 1.46952,0.80746 2.15451,-0.0688 3.54366,-0.55107 1.50778,-0.52045 4.13682,-0.67736 5.53744,-1.44272 0.63909,-0.34824 1.14805,-0.94524 1.87899,-1.11362 0.9146,-0.21047 1.81775,0.15691 2.73237,0 -0.77685,0.37122 -1.20163,2.02441 -2.21958,1.11362 -0.96055,1.67234 1.5116,4.4353 0.68118,6.57835 -0.79982,2.07414 -2.46066,3.26046 -3.14184,5.5183 -0.84574,2.81274 -0.50132,5.62547 -0.9682,8.46499 -0.22578,1.38148 0.36739,5.02464 -1.27432,5.23512 0.0536,-1.61493 0.96818,-2.7936 0.685,-4.52716 -1.09066,0.27171 -0.0345,2.2502 -2.05119,2.90459 1.36619,1.76416 0.36355,3.60487 0.42477,5.55275 -0.31761,-0.53577 -0.39799,-1.10596 -0.25639,-1.70679 -0.19899,1.16719 -0.94523,2.2081 -0.94141,3.41738 2.20427,-0.78833 0.4707,2.15451 0.0306,2.87396 -1.03707,1.71059 -1.78715,3.71204 -0.4554,5.61399 0.59316,0.84573 1.7106,1.62257 -0.0918,2.34203 -1.05239,0.41711 -2.86631,0.34825 -3.77327,-0.37121 -0.2717,-0.23726 -0.50132,-0.50514 -0.69266,-0.81129 -0.7692,-1.12892 -0.50515,-0.72329 -1.53839,-0.90313 -0.79216,-0.13777 -1.28582,-1.09448 -2.15451,-0.91462 -0.70414,0.14541 -1.34322,0.38268 -1.9517,0.71562 -0.38268,0.20664 -1.37766,-0.13012 -1.88281,-0.35208 -2.58694,-1.14804 -3.75796,-1.69529 -4.11003,-1.72973 -0.17604,-0.0153 -0.86103,-0.0728 0.27171,-0.26406 0.71944,0.11482 8.38844,4.15978 6.38318,-1.1557 -0.40947,-0.45157 -2.24254,-3.7924 -2.64817,-4.20187 -0.39035,-0.39417 -2.75534,-1.99761 -2.98879,-2.63671 -0.25256,-0.685 -2.17745,-1.12891 -2.56397,-1.06386 -1.59197,0.27555 -0.55873,4.79122 -0.87635,4.28607 0.38268,0.39417 1.27051,4.10239 2.68261,4.77591 -0.19134,-0.0153 0.0459,0.37884 -0.34057,0.25256 -1.02561,-0.32911 -0.7692,3.14185 -2.17749,0.0918 -0.79216,-1.71442 -2.45301,-2.89309 -3.76178,-4.15213 -2.59461,-2.49127 -3.67761,-5.89717 -6.45591,-8.30808 -1.76798,-1.54604 -5.61397,-4.59987 -3.8651,-6.80796"
       stroke-miterlimit="3.992"
       id="path2426"
       style="fill:#77317f;fill-opacity:1;stroke:#ffffff;stroke-width:0.201587;stroke-miterlimit:3.992;stroke-dasharray:none;stroke-opacity:1"
       inkscape:connector-curvature="0"
       inkscape:label="Nicaragua" /></g><g
     style="fill:#cccccc;stroke:#000000;stroke-width:0.169903;stroke-miterlimit:3.992;stroke-dasharray:none;stroke-opacity:1"
     stroke-miterlimit="3.992"
     id="bs"
     transform="matrix(2.942854,0,0,2.942854,-1685.6995,-1549.4529)"><title
       id="title3989">Bahamas</title><path
       inkscape:connector-curvature="0"
       id="path3165"
       d="m 708.819,557.06 c -0.241,-0.094 -0.48,-0.191 -0.721,-0.287 0.267,0.032 0.507,0.129 0.721,0.287"
       style="stroke:#000000;stroke-width:0.169903;stroke-miterlimit:3.992;stroke-dasharray:none;stroke-opacity:1" /><path
       inkscape:connector-curvature="0"
       id="path3167"
       d="m 691.251,541.509 c 0.937,0.813 1.575,-0.102 1.647,1.524 0.054,1.191 1.271,2.221 1.05,3.432 -0.271,1.49 -3.507,3.909 -3.131,1.307 -0.888,0.272 -1.663,-0.365 -2.088,-1.08 0.529,-0.592 1.069,-0.471 1.296,0.288 0.688,-0.817 -0.372,-1.306 0.332,-2.071 0.951,-1.033 0.793,-2.11 0.894,-3.4"
       style="stroke:#000000;stroke-width:0.169903;stroke-miterlimit:3.992;stroke-dasharray:none;stroke-opacity:1" /><path
       inkscape:connector-curvature="0"
       id="path3169"
       d="m 691.755,550.653 c -0.238,-0.537 0.002,-0.704 0.72,-0.504 -0.241,0.167 -0.482,0.336 -0.72,0.504"
       style="stroke:#000000;stroke-width:0.169903;stroke-miterlimit:3.992;stroke-dasharray:none;stroke-opacity:1" /><path
       inkscape:connector-curvature="0"
       id="path3171"
       d="m 689.594,530.348 c -0.561,-0.236 -1.021,-0.685 -1.296,-1.224 1.074,1.167 1.65,-0.135 2.547,-0.685 1.337,-0.817 3.427,0.559 5.084,-0.54 0.228,1.329 -5.435,2.096 -6.335,2.449"
       style="stroke:#000000;stroke-width:0.169903;stroke-miterlimit:3.992;stroke-dasharray:none;stroke-opacity:1" /><path
       inkscape:connector-curvature="0"
       id="path3173"
       d="m 693.338,554.324 c -0.263,-0.072 -0.528,-0.145 -0.792,-0.216 0.608,-0.024 1.112,-0.265 1.512,-0.721 -1.191,0.843 -1.495,-0.491 -1.747,-1.4 -0.085,-0.312 -0.187,-0.781 -0.485,-0.975 0.731,-0.537 1.282,-1.332 2.161,-1.657 -0.027,0.828 -1.013,1.28 -0.72,2.161 0.457,-0.386 0.77,-0.865 0.937,-1.439 1.198,1.151 0.504,3.532 -0.866,4.247"
       style="stroke:#000000;stroke-width:0.169903;stroke-miterlimit:3.992;stroke-dasharray:none;stroke-opacity:1" /><path
       inkscape:connector-curvature="0"
       id="path3175"
       d="m 696.432,543.38 c -0.052,-1.033 1.043,-0.828 1.657,-0.576 -0.527,0.263 -1.079,0.455 -1.657,0.576"
       style="stroke:#000000;stroke-width:0.169903;stroke-miterlimit:3.992;stroke-dasharray:none;stroke-opacity:1" /><path
       inkscape:connector-curvature="0"
       id="path3177"
       d="m 699.674,535.676 c -0.162,-0.556 -0.589,-0.998 -1.151,-1.151 0.817,-0.654 1.395,-1.559 1.81,-2.509 0.214,-0.498 0.389,-1.008 0.528,-1.532 0.348,-1.304 -0.124,-0.526 -0.809,-1.332 -1.104,-1.298 -1.788,-3.062 -4.047,-2.258 2.211,-1.302 3.936,1.038 5.112,2.521 0.868,1.095 0.743,1.907 -0.168,2.921 -0.849,0.943 -0.611,2.309 -1.273,3.342"
       style="stroke:#000000;stroke-width:0.169903;stroke-miterlimit:3.992;stroke-dasharray:none;stroke-opacity:1" /><path
       inkscape:connector-curvature="0"
       id="path3179"
       d="m 703.634,539.709 c -0.584,-0.022 -0.965,-0.438 -1.008,-1.008 1.17,0.895 2.759,1.553 3.528,2.879 0.899,1.554 -0.654,2.885 -0.432,4.465 -1.066,-0.86 0.54,-2.569 0.63,-3.539 0.12,-1.323 -2.003,-2 -2.718,-2.797"
       style="stroke:#000000;stroke-width:0.169903;stroke-miterlimit:3.992;stroke-dasharray:none;stroke-opacity:1" /><path
       inkscape:connector-curvature="0"
       id="path3181"
       d="m 705.507,554.685 c 0.991,0.121 1.238,1.214 1.871,1.8 -0.706,-0.392 -1.737,-0.893 -1.871,-1.8"
       style="stroke:#000000;stroke-width:0.169903;stroke-miterlimit:3.992;stroke-dasharray:none;stroke-opacity:1" /><path
       inkscape:connector-curvature="0"
     id="path3183"
       d="m 710.258,550.869 c -0.339,-0.86 0.91,-0.789 0.198,-1.597 -0.595,-0.674 -1.074,-2.265 -1.063,-3.154 0.357,0.856 2.965,4.472 0.865,4.751"
       style="stroke:#000000;stroke-width:0.169903;stroke-miterlimit:3.992;stroke-dasharray:none;stroke-opacity:1" /><path
       inkscape:connector-curvature="0"
       id="path3185"
       d="m 710.835,554.757 c 0.956,1.354 0.643,2.791 1.172,4.186 0.343,0.901 2.01,1.309 1.06,2.438 -0.167,-1.337 -1.619,-1.408 -2.088,-2.52 1.653,1.306 -0.316,-3.272 -0.144,-4.104"
       style="stroke:#000000;stroke-width:0.169903;stroke-miterlimit:3.992;stroke-dasharray:none;stroke-opacity:1" /><path
       inkscape:connector-curvature="0"
       id="path3187"
       d="m 714.433,555.044 c -0.241,-0.071 -0.48,-0.143 -0.72,-0.216 0.667,-0.679 0.905,-0.606 0.72,0.216"
       style="stroke:#000000;stroke-width:0.169903;stroke-miterlimit:3.992;stroke-dasharray:none;stroke-opacity:1" /><path
       inkscape:connector-curvature="0"
       id="path3189"
       d="m 717.026,567.429 c 1.107,-0.835 1.942,-1.98 3.169,-2.665 -1.48,-0.863 -0.249,-1.932 0.203,-1.156 1.042,1.794 -2.35,3.155 -3.372,3.821"
       style="stroke:#000000;stroke-width:0.169903;stroke-miterlimit:3.992;stroke-dasharray:none;stroke-opacity:1" /><path
       inkscape:connector-curvature="0"
       id="path3191"
       d="m 717.097,551.228 c 0.265,-0.047 0.529,-0.096 0.792,-0.143 -0.121,0.584 -0.542,1.055 -1.08,1.296 0.165,-0.367 0.263,-0.751 0.288,-1.151"
       style="stroke:#000000;stroke-width:0.169903;stroke-miterlimit:3.992;stroke-dasharray:none;stroke-opacity:1" /><path
       inkscape:connector-curvature="0"
       id="path3193"
       d="m 718.681,563.541 c -0.761,-0.117 -1.64,-0.688 -1.439,-1.584 0.603,0.339 1.595,0.694 1.439,1.584"
       style="stroke:#000000;stroke-width:0.169903;stroke-miterlimit:3.992;stroke-dasharray:none;stroke-opacity:1" /><path
       inkscape:connector-curvature="0"
       id="path3195"
       d="m 719.906,578.589 c -0.669,-1.132 0.969,-2.188 1.862,-2.432 0.614,-0.169 0.783,0.236 1.312,0.343 0.885,0.181 1.562,-1.005 2.154,-1.439 -0.165,0.924 -0.447,2.088 -1.176,2.743 -1.018,0.915 -2.928,0.301 -4.152,0.785"
       style="stroke:#000000;stroke-width:0.169903;stroke-miterlimit:3.992;stroke-dasharray:none;stroke-opacity:1" /><path
       inkscape:connector-curvature="0"
       id="path3197"
       d="m 725.162,574.125 c -0.156,-0.605 0.077,-0.942 0.721,-0.792 -0.221,0.284 -0.458,0.548 -0.721,0.792"
       style="stroke:#000000;stroke-width:0.169903;stroke-miterlimit:3.992;stroke-dasharray:none;stroke-opacity:1" /><path
       inkscape:connector-curvature="0"
       id="path3199"
       d="m 727.97,566.78 c -0.523,-0.904 -2.402,-0.197 -2.447,-1.296 0.527,-0.068 2.943,0.32 2.447,1.296"
       style="stroke:#000000;stroke-width:0.169903;stroke-miterlimit:3.992;stroke-dasharray:none;stroke-opacity:1" /></g><path
     style="fill:#2d1b4e;fill-opacity:1;stroke:#000000;stroke-width:0.5;stroke-miterlimit:3.9920001;stroke-dasharray:none;stroke-opacity:1"
     inkscape:connector-curvature="0"
     stroke-miterlimit="3.992"
     d="m 319.73164,220.84152 c 5.8916,-7.76912 16.79488,-6.53608 25.21144,-4.87632 5.1824,1.02416 9.19056,4.14944 14.0992,5.6356 5.08824,1.542 5.39136,3.81096 7.93984,8.14288 -2.25128,1.06528 -4.66736,1.27128 -7.12464,1.27128 -2.27192,0 -3.38432,-2.3396 -5.80328,-1.904 3.12824,-0.5296 -0.7592,-1.15072 -1.6304,-0.3712 -0.92104,0.82104 -1.73328,2.44256 -3.12232,2.50144 -2.72512,0.112 -6.28592,-0.3888 -3.93168,3.58728 -2.81928,0.024 -3.19,-3.39304 -5.84744,-3.15176 -2.57208,0.2352 -7.03928,-0.024 -8.446,-2.59856 -0.86224,-1.58912 -2.316,-3.08704 -3.51376,-4.42608 -2.06,-2.31008 -6.2124,-0.94168 -7.83096,-3.81096"
     id="jm"
     inkscape:label="#jm"><title
       id="title3967">Jamaica</title></path><path
     inkscape:connector-curvature="0"
     style="fill:#2d1b4e;fill-opacity:1;stroke:#000000;stroke-width:0.5;stroke-miterlimit:3.9920001;stroke-dasharray:none;stroke-opacity:1"
     stroke-miterlimit="3.992"
     d="m 518.48348,379.32898 c -3.63738,-0.89462 -8.59314,-4.03758 -8.68142,-8.26352 1.95994,0.29134 8.14582,6.32124 8.68142,8.26352"
     id="cw-"
     inkscape:label="#cw"><title
       id="title1960">Curaçao</title></path><path
     style="fill:#2d1b4e;fill-opacity:1;stroke:#000000;stroke-width:0.5;stroke-miterlimit:3.9920001;stroke-dasharray:none;stroke-opacity:1"
     inkscape:connector-curvature="0"
     stroke-miterlimit="3.992"
     d="m 689.46328,298.81544 c -0.3296,-3.36074 -3.1871,-7.44836 -1.47436,-10.8091 4.4702,1.14478 6.80682,9.17288 1.47436,10.8091"
     id="dm-"
     inkscape:label="#dm"><title
       id="title2020">Dominica</title></path><g
     id="ag-"
     inkscape:label="#ag"
     style="fill:#2d1b4e;fill-opacity:1;stroke:#000000;stroke-opacity:1"><title
       id="title2004">Antigua and Barbuda</title><path
       inkscape:connector-curvature="0"
       id="path3775"
       d="m 685.22264,253.26006 c -2.76334,0.1118 -3.65798,-3.92576 -0.61506,-4.24064 2.73096,-0.28252 1.69214,3.09588 0.61506,4.24064"
       style="fill:#2d1b4e;fill-opacity:1;stroke:#000000;stroke-width:0.5;stroke-miterlimit:3.992;stroke-dasharray:none;stroke-opacity:1" /><path
       inkscape:connector-curvature="0"
       id="path3777"
       d="m 686.52044,239.27268 c -1.70098,-0.32372 -2.71626,-1.65388 -2.56324,-3.38722 2.472,-0.8711 3.24892,1.45964 2.56324,3.38722"
       style="fill:#2d1b4e;fill-opacity:1;stroke:#000000;stroke-width:0.5;stroke-miterlimit:3.992;stroke-dasharray:none;stroke-opacity:1" /></g><path
     inkscape:connector-curvature="0"
     style="fill:#2d1b4e;fill-opacity:1;stroke:#000000;stroke-width:0.5;stroke-miterlimit:3.9920001;stroke-dasharray:none;stroke-opacity:1"
     stroke-miterlimit="3.992"
     d="m 726.1283,353.4819 c -2.81924,-1.20362 -2.3219,-3.86102 -2.3219,-6.3595 2.36016,0.8799 6.68028,4.8145 2.3219,6.3595"
     id="bb-" /><g
     style="fill:#2d1b4e;fill-opacity:1;stroke:#000000;stroke-width:0.169903;stroke-miterlimit:3.992;stroke-dasharray:none;stroke-opacity:1"
     stroke-miterlimit="3.992"
     id="tc-"
     transform="matrix(2.942854,0,0,2.942854,-1685.6995,-1549.4529)"
     inkscape:label="#tc"><title
       id="title1952">Turks and Caicos Islands</title><path
       inkscape:connector-curvature="0"
       id="path3789"
       d="m 731.216,571.461 c -0.12,-0.239 -0.241,-0.48 -0.361,-0.721 0.49,0.306 0.994,0.331 1.51,0.072 -0.371,0.239 -0.754,0.457 -1.149,0.649"
       style="fill:#2d1b4e;fill-opacity:1;stroke:#000000;stroke-width:0.169903;stroke-miterlimit:3.992;stroke-dasharray:none;stroke-opacity:1" /><path
       inkscape:connector-curvature="0"
       id="path3791"
       d="m 735.814,571.461 c -0.239,-0.145 -0.48,-0.288 -0.72,-0.433 0.843,-0.698 0.956,-0.21 0.72,0.433"
       style="fill:#2d1b4e;fill-opacity:1;stroke:#000000;stroke-width:0.169903;stroke-miterlimit:3.992;stroke-dasharray:none;stroke-opacity:1" /><path
       inkscape:connector-curvature="0"
       id="path3793"
       d="m 737.115,572.18 c -0.255,-0.225 -0.495,-0.465 -0.72,-0.72 0.662,-0.053 0.605,0.205 0.72,0.72"
       style="fill:#2d1b4e;fill-opacity:1;stroke:#000000;stroke-width:0.169903;stroke-miterlimit:3.992;stroke-dasharray:none;stroke-opacity:1" /></g><path
     style="fill:#2d1b4e;fill-opacity:1;stroke:#000000;stroke-width:0.5;stroke-miterlimit:3.9920001;stroke-dasharray:none;stroke-opacity:1"
     inkscape:connector-curvature="0"
     stroke-miterlimit="3.992"
     d="m 689.25728,351.57492 c -3.00464,-1.82162 -0.9211,-4.66736 0.65038,-6.56844 1.55088,2.16594 0.82694,4.63206 -0.65038,6.56844"
     id="vc-"
     inkscape:label="#vc"><title
       id="title2032">Saint Vincent and the Grenadines</title></path><path
     style="fill:#2d1b4e;fill-opacity:1;stroke:#000000;stroke-width:0.5;stroke-miterlimit:3.9920001;stroke-dasharray:none;stroke-opacity:1"
     inkscape:connector-curvature="0"
     stroke-miterlimit="3.992"
     d="m 695.61092,336.74 c -4.08764,-1.63034 -1.95994,-5.82684 0,-8.26354 3.01642,1.59798 1.98348,6.29478 0,8.26354"
     id="lc-"
     inkscape:label="#lc"><title
       id="title2030">Saint Lucia</title></path><path
     inkscape:connector-curvature="0"
     style="fill:#2d1b4e;fill-opacity:1;stroke:#000000;stroke-width:0.5;stroke-miterlimit:3.9920001;stroke-dasharray:none;stroke-opacity:1"
     stroke-miterlimit="3.992"
     d="m 256.59006,193.72024 c 2.15124,0.1354 4.23182,-0.48556 6.35952,-0.63566 -1.91286,1.31546 -4.15826,2.46612 -6.5714,2.11886 0.0676,-0.49734 0.1412,-0.9888 0.21188,-1.4832"
     id="ky-"
     inkscape:label="#ky"><title
       id="title988">Cayman Islands</title></path><g
     id="kn-"
     inkscape:label="#kn"
     style="fill:#2d1b4e;fill-opacity:1;stroke:#000000;stroke-opacity:1"><title
       id="title2002">Saint Kitts and Nevis</title><path
       inkscape:connector-curvature="0"
       id="path3830"
       d="m 665.30246,247.53622 c -1.47438,-1.27426 -2.88694,-2.61914 -4.24066,-4.02288 2.52792,-1.21246 4.38192,1.85398 4.24066,4.02288"
       style="fill:#2d1b4e;fill-opacity:1;stroke:#000000;stroke-width:0.5;stroke-miterlimit:3.992;stroke-dasharray:none;stroke-opacity:1" /><path
       inkscape:connector-curvature="0"
       id="path3832"
       d="m 666.59732,250.71744 c -0.1472,-0.77986 -0.29134,-1.55382 -0.44144,-2.33074 1.04472,1.01234 1.08886,1.26836 0.44144,2.33074"
       style="fill:#2d1b4e;fill-opacity:1;stroke:#000000;stroke-width:0.5;stroke-miterlimit:3.992;stroke-dasharray:none;stroke-opacity:1" /></g><path
     style="fill:#2d1b4e;stroke:#000000;stroke-width:0.5;stroke-miterlimit:3.9920001;stroke-dasharray:none;stroke-opacity:1;fill-opacity:1"
     inkscape:connector-curvature="0"
     stroke-miterlimit="3.992"
     d="m 673.28936,261.57068 c -0.1442,-0.77986 0.3296,-0.45026 0.1796,-1.22716 0.51794,0.50616 0.76514,0.80634 0.79752,1.1124 0.0324,0.309 -0.1472,0.45908 -0.4738,0.98584"
     id="ms-"
     inkscape:label="#ms"><title
       id="title2010">Montserrat</title></path><path
     style="fill:#2d1b4e;stroke:#000000;stroke-width:0.5;stroke-miterlimit:3.9920001;stroke-dasharray:none;stroke-opacity:1;fill-opacity:1"
     inkscape:connector-curvature="0"
     stroke-miterlimit="3.992"
     d="m 662.45966,229.41412 c -0.75926,0.0236 -1.52146,0.047 -2.28072,0.0706 1.3243,0.98586 1.17716,0.2266 2.28072,-0.0706"
     id="bl-"
     inkscape:label="#bl"><title
       id="title1994">Saint Barthelemy</title></path><path
     inkscape:connector-curvature="0"
     style="fill:#2d1b4e;fill-opacity:1;stroke:#000000;stroke-width:0.5;stroke-miterlimit:3.9920001;stroke-dasharray:none;stroke-opacity:1"
     stroke-miterlimit="3.992"
     d="m 491.35036,367.89012 c -0.35314,-0.70924 -0.70334,-1.40964 -1.06238,-2.11886 2.33958,-0.92112 3.32248,2.46022 3.61972,4.02288 -0.927,-0.53266 -1.77748,-1.17126 -2.55734,-1.90402"
     id="aw-"
     inkscape:label="#aw"><title
       id="title1954">Aruba</title></path><g
     id="vi-"
     style="fill:#2d1b4e;fill-opacity:1;stroke:#000000;stroke-opacity:1"
     inkscape:label="#vi"><title
       id="title1976">US Virgin Islands</title><path
       inkscape:connector-curvature="0"
       id="path317"
       d="m 616.80716,235.67062 c -0.1442,-4.47608 4.64972,-1.21834 6.97162,-2.11884 -2.02762,1.56558 -4.57024,1.69508 -6.97162,2.11884"
       style="fill:#2d1b4e;fill-opacity:1;stroke:#000000;stroke-width:0.5;stroke-miterlimit:3.992;stroke-dasharray:none;stroke-opacity:1" /><path
       inkscape:connector-curvature="0"
       id="path3888"
       d="m 616.92602,220.25778 c -0.70922,-0.28252 -1.41256,-0.56504 -2.11886,-0.84756 2.05412,-0.9417 2.7604,-0.65624 2.11886,0.84756"
       style="fill:#2d1b4e;fill-opacity:1;stroke:#000000;stroke-width:0.5;stroke-miterlimit:3.992;stroke-dasharray:none;stroke-opacity:1" /></g><path
     style="fill:#2d1b4e;stroke:#000000;stroke-width:0.5;stroke-miterlimit:3.9920001;stroke-dasharray:none;stroke-opacity:1;fill-opacity:1"
     inkscape:connector-curvature="0"
     stroke-miterlimit="3.992"
     d="m 656.41504,223.38126 c 1.35666,-1.00644 2.77216,-1.92462 4.23476,-2.7545 -0.97114,1.43906 -2.49848,2.5132 -4.23476,2.7545"
     id="ai-"
     inkscape:label="#ai"><title
       id="title1992">Anguilla</title></path><g
     id="mf-sx"
     inkscape:label="#mf-sx"
     style="fill:#2d1b4e;fill-opacity:1;stroke:#000000;stroke-opacity:1"><title
       id="title1996">Saint Martin - Sint Maarten</title><path
       id="sx-"
       d="m 659.22252,226.11518 c -0.39728,1.13006 -0.62682,0.38552 -0.81516,0.69452 -0.153,0.24424 -0.57386,-0.22366 -0.84756,-0.37964 -0.27368,-0.159 0.0648,-0.33254 -0.1382,-0.50616"
       stroke-miterlimit="3.992"
       style="fill:#2d1b4e;fill-opacity:1;stroke:#000000;stroke-width:0.5;stroke-miterlimit:3.992;stroke-dasharray:none;stroke-opacity:1"
       inkscape:connector-curvature="0" /><path
       inkscape:label="Saint Martin"
       id="mf-"
       d="m 657.86586,226.0004 c 1.751,-1.9776 1.75688,-1.01528 1.35666,0.1148"
       stroke-miterlimit="3.992"
       inkscape:connector-curvature="0"
       style="fill:#2d1b4e;fill-opacity:1;stroke:#000000;stroke-width:0.5;stroke-miterlimit:3.992;stroke-dasharray:none;stroke-opacity:1" /></g><g
     id="bz"
     transform="matrix(2.942854,0,0,2.942854,-1773.7011,-1682.1006)"
     style="fill:#2d1b4e;fill-opacity:1;stroke:#000000;stroke-width:0.169903;stroke-miterlimit:3.992;stroke-dasharray:none;stroke-opacity:1"
     inkscape:label="#bz"><title
       id="title4822">Belize</title><path
       d="m 638.568,654.191 c 0.569,-0.172 0.945,-0.609 0.72,-1.225 -0.247,0.406 -0.486,0.814 -0.72,1.225"
       stroke-miterlimit="3.992"
       id="path4824-5"
       inkscape:connector-curvature="0"
       style="fill:#2d1b4e;fill-opacity:1;stroke:#000000;stroke-width:0.169903;stroke-miterlimit:3.992;stroke-dasharray:none;stroke-opacity:1" /><path
       d="m 626.976,667.151 c 0.575,-3.729 1.558,-7.252 1.917,-11.021 0.145,-1.521 0.45,-9.185 3.195,-6.186 0.761,-1.428 2.712,-5.696 4.824,-5.255 -0.441,0.406 -0.658,0.91 -0.647,1.512 3.184,-1.614 0.403,4.602 0.094,5.654 -0.373,1.277 -0.602,2.876 -0.824,4.221 -0.159,0.967 0.213,1.688 -0.118,2.677 -0.328,0.978 -0.832,1.884 -1.169,2.854 0.554,-1.991 -0.499,0.55 -0.726,0.835 -0.641,0.8 -1.468,1.096 -2.236,1.724 -0.652,0.531 -1.241,1.211 -1.633,1.958 -0.186,0.318 -0.287,0.661 -0.301,1.028 -0.786,-0.195 -1.587,-0.082 -2.376,-0.001"
       stroke-miterlimit="3.992"
       id="path4826"
       inkscape:connector-curvature="0"
       style="fill:#2d1b4e;fill-opacity:1;stroke:#000000;stroke-width:0.169903;stroke-miterlimit:3.992;stroke-dasharray:none;stroke-opacity:1" /></g><g
     id="gt"
     style="fill:#2d1b4e;fill-opacity:1;stroke:#000000;stroke-width:0.201587;stroke-miterlimit:3.992;stroke-dasharray:none;stroke-opacity:1"
     transform="matrix(2.4803232,0,0,2.4803232,-1677.2169,-1569.2211)"><title
       id="title4829">Guatemala</title><path
       d="m 676.209,759.807 c 0.96436,-1.15188 0.79981,-2.36499 1.14805,-3.74265 0.16837,-0.66971 1.11361,-1.13657 0.91079,-1.87899 -0.37503,-1.37766 -0.35972,-1.60727 0.44391,-2.95049 1.20929,-2.01292 2.23487,-4.60753 3.06913,-6.31429 0.85339,-1.74122 4.11386,-0.75007 5.83977,-0.75007 0.99116,0 6.19183,0.62379 6.7008,-0.21431 0.16838,-0.27553 0.61613,-3.48625 0.47836,-3.60488 -0.59699,-0.52045 -1.40827,-0.28319 -1.59579,-1.24755 -0.21431,-1.09831 -0.46305,-1.69146 -1.48482,-2.31142 -1.96317,-1.19015 -3.18393,-3.13418 -4.74529,-4.75294 1.18632,0 3.30257,0.5549 4.01818,-0.76536 0.73477,-1.35855 -0.16454,-3.43651 0.84956,-4.62283 1.08683,-1.27053 5.95842,-0.42097 7.51593,-0.42097 h 8.97395 c -0.7577,3.22986 -0.83424,6.5707 -1.45037,9.82352 -0.63526,3.32936 -1.36236,6.6434 -1.87897,9.99572 1.58813,-0.16073 4.95958,-0.23726 5.21216,1.96317 0.2564,-0.57019 0.52427,-1.25138 1.19396,-1.45037 -0.21047,-0.29849 -0.44007,-0.58168 -0.685,-0.85339 1.19016,0.42862 1.99762,1.43889 3.07679,2.05119 -2.88161,1.20545 -4.66876,4.10621 -7.32458,5.6752 -1.23607,0.73094 -2.84334,1.59964 -2.48746,3.30641 0.24876,1.20545 0.52046,2.03204 -0.4707,2.94666 -0.93757,0.86487 -3.59723,1.39298 -3.34083,2.76683 0.15308,0.81128 -0.45157,0.6429 -1.0256,1.14804 -0.11479,0.0995 -1.10596,1.42358 -0.96053,1.35853 -1.16718,0.52811 -4.1177,0.71179 -3.5207,3.1342 -1.39297,-0.60848 -2.64435,-1.6226 -4.17509,-1.88664 -1.56135,-0.26789 -3.21837,0.23343 -4.81418,0.0421 -3.95695,-0.47071 -6.8309,-3.80388 -9.47143,-6.44441"
       stroke-miterlimit="3.992"
       id="path4831"
       style="fill:#2d1b4e;fill-opacity:1;stroke:#000000;stroke-width:0.201587;stroke-miterlimit:3.992;stroke-dasharray:none;stroke-opacity:1"
       inkscape:connector-curvature="0" /></g><g
     style="fill:#2d1b4e;fill-opacity:1;stroke:#000000;stroke-width:0.169903;stroke-miterlimit:3.992;stroke-dasharray:none;stroke-opacity:1"
     stroke-miterlimit="3.992"
     transform="matrix(2.942854,0,0,2.942854,-1773.6907,-1682.0873)"
     id="tt"
     inkscape:label="#tt"><title
       id="title3963">Trinidad and Tobago</title><path
       inkscape:connector-curvature="0"
       id="path4854"
       d="m 829.727,717.768 c 0.841,-1.257 3.107,-1.126 3.624,-2.606 0.318,-0.912 0.113,-3.013 -1.244,-2.939 0.962,-0.973 2.597,-1.167 3.887,-1.287 2.628,-0.241 0.408,1.406 0.573,2.943 0.154,1.428 1.031,2.739 -0.816,3.418 -1.948,0.712 -4.083,-0.295 -6.024,0.471"
       style="fill:#2d1b4e;fill-opacity:1;stroke:#000000;stroke-width:0.169903;stroke-miterlimit:3.992;stroke-dasharray:none;stroke-opacity:1" /><path
       inkscape:connector-curvature="0"
       id="path4856"
       d="m 838.726,708.263 c 0.153,-0.904 0.964,-1.458 1.8,-1.655 0.057,0.972 -1.195,1.214 -1.8,1.655"
       style="fill:#2d1b4e;fill-opacity:1;stroke:#000000;stroke-width:0.169903;stroke-miterlimit:3.992;stroke-dasharray:none;stroke-opacity:1" /></g><path
     inkscape:connector-curvature="0"
     style="fill:#2d1b4e;fill-opacity:1;stroke:#000000;stroke-width:0.5;stroke-miterlimit:3.9920001;stroke-dasharray:none;stroke-opacity:1"
     stroke-miterlimit="3.992"
     d="m 726.10492,353.47644 c -2.81924,-1.20362 -2.3219,-3.86102 -2.3219,-6.3595 2.36016,0.8799 6.68028,4.8145 2.3219,6.3595"
     id="bb--"
     inkscape:label="#bb"><title
       id="title2038">Barbados</title></path><g
     id="g2047"
     inkscape:label="#gd"
     style="fill:#2d1b4e;fill-opacity:1;stroke:#000000;stroke-opacity:1"><title
       id="title2049">Grenada</title><path
       style="fill:#2d1b4e;fill-opacity:1;stroke:#000000;stroke-width:0.5;stroke-miterlimit:3.992;stroke-dasharray:none;stroke-opacity:1"
       inkscape:connector-curvature="0"
       stroke-miterlimit="3.992"
       d="m 675.89968,380.17652 c -2.26306,-2.15416 -0.36492,-4.90868 1.9099,-5.93278 0.8505,2.23068 0.1648,4.66736 -1.9099,5.93278"
       id="gd-"
       inkscape:label="#gd"><title
         id="title2042">Grenada</title></path><path
       style="fill:#2d1b4e;fill-opacity:1;stroke:#000000;stroke-width:0.5;stroke-miterlimit:3.992;stroke-dasharray:none;stroke-opacity:1"
       inkscape:connector-curvature="0"
       stroke-miterlimit="3.992"
       d="m 682.28562,367.69784 c -0.73023,-0.30941 -0.1941,-0.52316 -0.92506,-0.8261 0.70778,-0.15329 1.09449,-0.19416 1.36774,-0.0525 0.2757,0.14324 0.30197,0.37581 0.56157,0.93862"
       id="ms--8" /></g><g
     id="vg-"
     style="fill:#2d1b4e;fill-opacity:1;stroke:#000000;stroke-opacity:1"
     inkscape:label="#vg"><title
       id="title1978">British Virgin Islands</title><path
       inkscape:connector-curvature="0"
       id="path3890"
       d="m 633.3107,209.82354 c -0.70336,-0.28252 -1.41258,-0.56502 -2.11886,-0.84754 1.5803,-0.47674 1.18302,0.1912 2.11886,0.84754"
       style="fill:#2d1b4e;fill-opacity:1;stroke:#000000;stroke-width:0.5;stroke-miterlimit:3.992;stroke-dasharray:none;stroke-opacity:1" /><path
       inkscape:connector-curvature="0"
       id="path3888-8"
       d="m 625.94939,217.2038 c -0.70922,-0.28252 -1.41256,-0.56504 -2.11886,-0.84756 2.05412,-0.9417 2.7604,-0.65624 2.11886,0.84756"
       style="fill:#2d1b4e;fill-opacity:1;stroke:#000000;stroke-width:0.5;stroke-miterlimit:3.992;stroke-dasharray:none;stroke-opacity:1" /></g></svg>
