<?xml version="1.0" encoding="utf-8"?>
<svg viewBox="23.500043869018555 34.10000991821289 313.29998779296875 353.1999816894531" width="313.29998779296875" height="353.1999816894531" xmlns="http://www.w3.org/2000/svg"><path class="st1" d="M240.6,146c-56.7,1.2-48.7,74.6-88.2,72.8c-28.8-1.3-14.8-45.9,7.8-69.9c20.3-21.7,72.8-51.3,49.8-83.1&#10;&#9;&#9;c-23-31.7-75.9-21.3-97.3,0c-22.6,22.6,3.8,59.8,0,63.6c-3.8,3.8-16.3-3.5-24.8,0c-8.5,3.5-20.9,12.2-20.9,16.4&#10;&#9;&#9;c0,1.1,0.3,2.6,1.1,4.1c-4.3,0.7-6.8,3.2-8.2,9.3c-2.1,9.5-5.9,14.9-16.8,17.3c13.3-1,17.2-10.5,17.2-10.5&#10;&#9;&#9;c-1.6,9.4-7.1,11.4-14.8,12.6c19.5,0,17.1-15.3,18.3-21.4c0.7-3.6,3.5-4.8,5.9-5.1c2.9,3,8.6,5.7,19.8,5.7c19,0,42.8-0.2,36.8-41.2&#10;&#9;&#9;s13.8-52,38.2-49.5c29.9,3.1,21.8,24.8-9,50s-80.5,103.2-35.5,129.2c54.6,31.6,76.2-8,102-41.2s82,10.2,27.5,57.3&#10;&#9;&#9;s-116.8,7.8-158.2-22s-67.8,20.3-55,58s82.5,45,114,42.8c33.9-2.4,54.5-1.8,54.5,13.8s-41.8,3.5-43.5,14.8&#10;&#9;&#9;c14.5-10,60.8,17.5,60.8-18.2c0-24.8-29-29-69.8-29s-67.5-7-82.8-30.2s4-27.5,34.5-3s153,50,191-9.2&#10;&#9;&#9;C336.8,214.2,297.2,144.9,240.6,146z" style="fill: rgb(204, 204, 204); opacity: 1;" transform="matrix(1, 0, 0, 1, 0, 0)"/></svg>