<?xml version="1.0" encoding="utf-8"?>
<svg viewBox="130.974609375 294.6029052734375 214.7999267578125 108.10009765625" width="214.7999267578125" height="108.10009765625" xmlns="http://www.w3.org/2000/svg"><g transform="matrix(1, 0, 0, 1, 57.07462692260742, 21.402984619140625)">
			<path fill="#CCCCCC" d="M85.9,353.3c-3,11.2-6.6,11.2-9.3,17.5c-2.7,6.4,5.5,10.5,5.5,10.5l46.2-0.6l9.5-0.1v0l7.1-0.1v0l1.2,0&#10;&#9;&#9;&#9;&#9;c0-0.2-0.1-0.5-0.1-0.7c0,0,0,0,0,0c0-0.2-0.1-0.5-0.1-0.8c0,0,0,0,0,0v0c-0.5-2.3-1.3-5.1-2.7-7l0,0c0-0.1-0.1-0.1-0.1-0.1&#10;&#9;&#9;&#9;&#9;c-0.1-0.1-0.1-0.1-0.2-0.2c-0.2-0.2-0.3-0.3-0.5-0.5c0,0-0.1-0.1-0.1-0.1c-0.1-0.1-0.3-0.2-0.4-0.3c-0.1,0-0.1-0.1-0.2-0.1&#10;&#9;&#9;&#9;&#9;c-0.2-0.1-0.4-0.2-0.6-0.3c0,0,0,0-0.1,0c-0.2-0.1-0.4-0.1-0.6-0.2c-0.1,0-0.1,0-0.2,0c-0.2,0-0.5-0.1-0.7,0c-0.2,0-0.4,0-0.6,0&#10;&#9;&#9;&#9;&#9;c-0.1,0-0.1,0-0.2,0c-0.2,0-0.4,0-0.6,0c-0.1,0-0.1,0-0.2,0c-0.2,0-0.4,0-0.7,0c-0.1,0-0.3,0-0.4,0c-0.2,0-0.3,0-0.5,0&#10;&#9;&#9;&#9;&#9;c-0.2,0-0.4,0-0.6,0c-0.1,0-0.3,0-0.4,0c-0.3,0-0.5,0-0.8,0c-0.1,0-0.2,0-0.3,0c-0.3,0-0.7,0-1,0.1c0,0-0.1,0-0.1,0&#10;&#9;&#9;&#9;&#9;c-0.5,0-1.1,0.1-1.6,0.1l0,0c-9.8,0.5-23.8,1.3-23.8,1.3s16.2-4.8,26.5-5.4c0.2,0,0.3,0,0.5,0c0.2,0,0.4,0,0.6,0&#10;&#9;&#9;&#9;&#9;c0.2,0,0.3,0,0.5,0c0.2,0,0.4,0,0.7,0c0.1,0,0.2,0,0.3,0c0.3,0,0.6,0,0.9,0c0.1,0,0.2,0,0.3,0c0.2,0,0.4,0,0.6,0.1&#10;&#9;&#9;&#9;&#9;c0.1,0,0.2,0,0.3,0c0.2,0,0.4,0.1,0.5,0.1c0.1,0,0.2,0,0.2,0c0.2,0.1,0.5,0.1,0.7,0.2c0.4,0.1,0.8,0.3,1.2,0.5&#10;&#9;&#9;&#9;&#9;c0.1,0,0.2,0.1,0.3,0.1c0.3,0.1,0.6,0.3,0.9,0.5c0.1,0,0.1,0.1,0.2,0.1c0.3,0.2,0.6,0.4,0.9,0.6c0,0,0.1,0,0.1,0.1&#10;&#9;&#9;&#9;&#9;c0.3,0.2,0.6,0.5,0.9,0.8v0c1.6,1.6,2.7,3.6,3.5,5.8c0.1,0.4,0.3,0.8,0.4,1.2c0,0.1,0.1,0.2,0.1,0.3c0.1,0.3,0.2,0.6,0.2,0.9&#10;&#9;&#9;&#9;&#9;c0,0.1,0.1,0.3,0.1,0.4c0.1,0.3,0.1,0.6,0.2,0.9c0,0.1,0,0.2,0.1,0.3c0.1,0.4,0.1,0.8,0.2,1.2l3.2,0l0,0l135.9-1.7&#10;&#9;&#9;&#9;&#9;c-2.2-13.9-14.5-10.9-24.3-9.3c-9.8,1.6-28.2-5.2-28.2-5.2c-3.6-19.1-21.6-32.8-21.4-40.5c0.2-7.7,5.7-8.2,5.7-8.2&#10;&#9;&#9;&#9;&#9;c0.7,3.6,3.6,10,8,12.5c4.3,2.5,4.8-1.1,4.8-1.1c-11.2-2.3-8.2-12.1-8.2-12.1c2.3-0.5,0.9-8.9,0.9-8.9l3.4,0.2c0,0-1.1-4.1-3-8.4&#10;&#9;&#9;&#9;&#9;c-0.9-2.2-5.8-10.2-12.9-16.2v0c0,0,0,0,0,0c-1.6-1.4-3.4-2.7-5.3-3.7c0,0,0,0,0,0l0,0c-5.9-3.4-12.8-4.6-20-0.5c0,0,0,0,0,0&#10;&#9;&#9;&#9;&#9;c-0.3,0.2-0.7,0.4-1,0.6c-0.6,0.4-1.1,0.7-1.6,1.1c-0.1,0.1-0.2,0.1-0.3,0.2c-0.5,0.4-1,0.7-1.4,1.1c-0.1,0.1-0.2,0.1-0.2,0.2&#10;&#9;&#9;&#9;&#9;c-0.4,0.4-0.9,0.8-1.3,1.1c0,0-0.1,0.1-0.1,0.1c-0.4,0.4-0.8,0.8-1.3,1.3c-0.1,0.1-0.2,0.2-0.2,0.3c-0.4,0.4-0.8,0.9-1.1,1.3&#10;&#9;&#9;&#9;&#9;c-0.1,0.1-0.1,0.1-0.1,0.2c-0.3,0.4-0.7,0.8-1,1.3c0,0.1-0.1,0.1-0.1,0.2c-0.3,0.5-0.7,0.9-1,1.4c-0.1,0.1-0.1,0.2-0.2,0.3&#10;&#9;&#9;&#9;&#9;c-0.3,0.5-0.6,0.9-0.9,1.4c0,0,0,0.1-0.1,0.1c-0.3,0.5-0.5,0.9-0.8,1.4c0,0.1-0.1,0.2-0.1,0.2c-0.2,0.5-0.5,1-0.7,1.4&#10;&#9;&#9;&#9;&#9;c0,0.1-0.1,0.2-0.1,0.3c-0.2,0.5-0.4,1-0.6,1.5c0,0,0,0,0,0c-0.2,0.5-0.4,1-0.6,1.4c0,0.1-0.1,0.2-0.1,0.3&#10;&#9;&#9;&#9;&#9;c-0.2,0.5-0.3,0.9-0.5,1.4c0,0.1-0.1,0.2-0.1,0.3c-0.1,0.4-0.3,0.8-0.4,1.3c0,0.1,0,0.1-0.1,0.2c-0.1,0.4-0.2,0.9-0.4,1.3&#10;&#9;&#9;&#9;&#9;c0,0.1-0.1,0.3-0.1,0.4c-0.1,0.4-0.2,0.8-0.3,1.3c0,0.1-0.1,0.3-0.1,0.4c-0.1,0.3-0.1,0.7-0.2,1c0,0.1-0.1,0.3-0.1,0.4&#10;&#9;&#9;&#9;&#9;c-0.1,0.4-0.1,0.8-0.2,1.1c0,0.2-0.1,0.3-0.1,0.5c0,0.3-0.1,0.6-0.1,0.9c0,0.2-0.1,0.5-0.1,0.7c0,0.1,0,0.2,0,0.3l0,0&#10;&#9;&#9;&#9;&#9;c0,0.1,0,0.3,0,0.4c0,0.1,0,0.3,0,0.4c0,0,0,0.1,0,0.1c0,0.2,0,0.3,0,0.5c0,0.1,0,0.2,0,0.2c0,0.1,0,0.3,0,0.4c0,0.1,0,0.2,0,0.3&#10;&#9;&#9;&#9;&#9;c0,0.2,0,0.3,0,0.5c0,0,0,0.1,0,0.1c0,0.1,0,0.3,0,0.4c0,0,0,0,0,0c0,0.1,0,0.3,0,0.4c0,0.1,0,0.2,0,0.3c0,0.1,0,0.3,0,0.4&#10;&#9;&#9;&#9;&#9;c0,0.1,0,0.2,0,0.2c0,0.1,0,0.3,0,0.4c0,0.1,0,0.2,0,0.3c0,0,0,0,0,0.1c0,0.1,0,0.2,0,0.3c0,0.2,0,0.4,0,0.6c0,0.1,0,0.2,0,0.3&#10;&#9;&#9;&#9;&#9;c0,0.2,0,0.4,0,0.5c0,0.1,0,0.2,0,0.2c0,0.2,0,0.4,0,0.5c0,0,0,0.1,0,0.1c0,0.2,0,0.3,0,0.5c0,0,0,0,0,0.1c0,0.2,0,0.3,0,0.4&#10;&#9;&#9;&#9;&#9;c0,0,0,0,0,0c0,0.1,0,0.2,0,0.3c0,0,0,0,0,0.1c0,0.1,0,0.1,0,0.2c0,0,0,0.1,0,0.1l5.5,1.9v0l1.8,0.6c0,0,0,0,0,0c0,0,0,0,0,0&#10;&#9;&#9;&#9;&#9;c-0.2,0.6-1.8,5.6-8.4,10.1c-0.3,0.2-0.5,0.3-0.8,0.5c0,0-0.1,0-0.1,0.1c-0.3,0.2-0.5,0.3-0.8,0.5c0,0-0.1,0.1-0.1,0.1&#10;&#9;&#9;&#9;&#9;c-0.3,0.2-0.5,0.3-0.8,0.5c-0.1,0-0.1,0.1-0.2,0.1c-0.3,0.1-0.5,0.3-0.8,0.4c0,0-0.1,0-0.1,0.1c-0.4,0.2-0.8,0.4-1.2,0.6&#10;&#9;&#9;&#9;&#9;c-0.1,0.1-0.2,0.1-0.4,0.2c-0.3,0.2-0.7,0.3-1,0.5c-0.2,0.1-0.3,0.1-0.5,0.2c-0.3,0.1-0.7,0.3-1,0.4c-0.2,0.1-0.4,0.1-0.5,0.2&#10;&#9;&#9;&#9;&#9;c-0.4,0.1-0.8,0.3-1.2,0.4c-0.2,0.1-0.3,0.1-0.5,0.2c-0.6,0.2-1.1,0.3-1.7,0.5c-0.5,0.1-0.9,0.2-1.4,0.3c-0.2,0-0.4,0.1-0.6,0.1&#10;&#9;&#9;&#9;&#9;c0,0-0.1,0-0.1,0c-0.2,0-0.4,0.1-0.6,0.1c-0.6,0.1-1.1,0.2-1.7,0.3c-0.5,0.1-0.9,0.1-1.4,0.1c0,0,0,0-0.1,0&#10;&#9;&#9;&#9;&#9;c-0.4,0-0.9,0.1-1.3,0.1c0,0,0,0-0.1,0c-0.4,0-0.9,0-1.3,0c0,0,0,0,0,0c-9.1-0.1-16.8-4.4-25-7.3c0,0,0,0,0,0&#10;&#9;&#9;&#9;&#9;c-0.4-0.1-0.8-0.3-1.2-0.4c-0.1,0-0.2-0.1-0.3-0.1c-0.3-0.1-0.7-0.2-1-0.3c-0.1,0-0.2-0.1-0.4-0.1c-0.3-0.1-0.6-0.2-0.9-0.3&#10;&#9;&#9;&#9;&#9;c-0.1,0-0.3-0.1-0.4-0.1c-0.3-0.1-0.6-0.2-0.9-0.2c-0.2,0-0.3-0.1-0.5-0.1c-0.3-0.1-0.6-0.1-0.9-0.2c-0.2,0-0.3-0.1-0.5-0.1&#10;&#9;&#9;&#9;&#9;c-0.3-0.1-0.6-0.1-0.9-0.2c-0.2,0-0.3-0.1-0.5-0.1c-0.3-0.1-0.6-0.1-1-0.1c-0.1,0-0.3,0-0.4-0.1c-0.5-0.1-0.9-0.1-1.4-0.2&#10;&#9;&#9;&#9;&#9;c-0.5,0-1.1-0.1-1.6-0.1c-0.1,0-0.2,0-0.4,0c-0.4,0-0.8,0-1.2,0c-0.1,0-0.2,0-0.3,0c-0.4,0-0.9,0.1-1.3,0.2c-0.1,0-0.1,0-0.2,0&#10;&#9;&#9;&#9;&#9;c-0.5,0.1-1,0.2-1.4,0.3l0,0l0,0C94.5,329.9,88.4,343.8,85.9,353.3z M207.8,295.5h11.8C216.2,302.1,207.8,295.5,207.8,295.5z"/>
		</g></svg>